<?xml version="1.0" encoding="UTF-8"?>
<svg xmlns="http://www.w3.org/2000/svg" version="1.1" viewBox="0 0 129.5 18.7">
  <defs>
    <style>
      .cls-1 {
        fill: #58595b;
      }

      .cls-2 {
        fill: #ed1c24;
      }
    </style>
  </defs>
  <!-- Generator: Adobe Illustrator 28.7.0, SVG Export Plug-In . SVG Version: 1.2.0 Build 136)  -->
  <g>
    <g id="Layer_1">
      <g>
        <path class="cls-2" d="M7.6,18c1.1-.4,2-1,2.8-1.6l.2-.2c.9-.6,1.8-1.3,2.7-2.1,2-1.8,3.2-3.6,3.9-5.8.3-.9.7-2.6.2-4.3-.4-1.2-1-2.2-2-2.9-.1-.1-1.3-1.1-3.7-1.1s-4.5.9-6.9,2.6h0c0,0,0,0,0,0,0,0-.1,0-.2.1,0,0-.1,0-.2.1-.5.4-1,.8-1.4,1.2-1,1.1-2.2,2.9-2.2,4.4,0,.6.3,1.2.8,1.6.4.3,1,.5,1.6.5,1.3,0,2.7-.7,3.6-1.3,0,0,.1,0,.2-.1.2-.1.3-.2.5-.4h.2c1.4-1.1,2.7-2.1,4.3-2.6.4-.1.8-.2,1.1-.2s.3,0,.5,0c.5.1.8.4,1,.9.4.8.3,2-.2,3.2-.7,1.5-1.8,3.1-3.5,4.5-.8.7-1.6,1.3-2.3,1.7h0c-.3.2-.7.4-1,.6h0c-.1,0-.2.1-.3.1-1.6.4-.6-1-.6-1,.3-.4.7-.8,1.1-1.2.2-.2.4-.4.7-.7h0c.3-.3.7-.7.6-1.3,0-.8-.8-1.2-1.4-1.3h0c-.7,0-1.3.4-1.7.8-.4.3-.8.9-1.1,1.4-.4.7-1.3,2.5-.4,3.9.3.6.9.9,1.7.9s1.2-.1,1.9-.4"/>
        <g>
          <path class="cls-2" d="M28.9,7.7V1.8h2.8c1.1,0,1.9.6,1.9,1.6s-.3,1.1-.8,1.4c.7.3,1,.8,1,1.4,0,.9-.7,1.6-1.9,1.6h-3ZM31.5,4.2c.4,0,.6-.3.6-.6s-.2-.6-.7-.6h-1.1v1.2h1.1ZM31.6,6.5c.4,0,.7-.3.7-.6s-.2-.6-.7-.6h-1.2v1.2h1.2Z"/>
          <path class="cls-2" d="M34.7,7.7V1.5h1.4v2.3c.3-.3.8-.5,1.2-.5.8,0,1.6.6,1.6,1.6v2.7h-1.4v-2.3c0-.5-.4-.7-.7-.7s-.7.2-.7.7v2.3h-1.4Z"/>
          <path class="cls-2" d="M39.8,6.5c0-.8.8-1.3,1.8-1.3s.6,0,.8.1h0c0-.4-.3-.7-.8-.7s-.8.2-1,.5l-.8-.8c.3-.4,1-.9,1.9-.9s2.1.7,2.1,1.8v2.5h-1.3v-.4c-.2.3-.6.5-1.1.5-.9,0-1.6-.5-1.6-1.3ZM41.7,6.9c.4,0,.8-.3.8-.7-.1,0-.4-.1-.6-.1-.4,0-.7.2-.7.4s.2.4.5.4Z"/>
          <path class="cls-2" d="M45,7.7V3.5h1.3v.6c.2-.4.7-.7,1.1-.7s.3,0,.5,0v1.2c-.3,0-.4,0-.6,0-.5,0-1,.3-1,1.1v2h-1.4Z"/>
          <path class="cls-2" d="M48.1,3.5h.7v-1.4h1.3v1.4h1.3v1.1h-1.2v1.4c0,.5.3.6.6.6s.5,0,.7-.1v1.1c-.2.1-.6.2-1,.2-1,0-1.7-.5-1.7-1.6v-1.6h-.7v-1.1Z"/>
          <path class="cls-2" d="M53,1.4c.4,0,.8.3.8.8s-.3.8-.8.8-.8-.3-.8-.8.3-.8.8-.8ZM53.7,3.5v4.2h-1.4V3.5h1.4Z"/>
          <path class="cls-2" d="M58.5,1.8v2.3h2.6V1.8h1.4v6h-1.4v-2.4h-2.6v2.4h-1.4V1.8h1.4Z"/>
          <path class="cls-2" d="M65.7,3.4c1,0,2.1.7,2.1,2.1s0,.3,0,.5h-2.8c0,.5.5.7.9.7s.7-.2.9-.5l.9.8c-.3.5-1,.9-1.8.9-1.3,0-2.3-.9-2.3-2.2s.9-2.2,2.1-2.2ZM64.9,5.2h1.6c0-.3-.3-.7-.8-.7s-.8.3-.8.7Z"/>
          <path class="cls-2" d="M68,3.5h1.6l.7,1.1.7-1.1h1.6l-1.5,2.1,1.5,2.2h-1.5l-.8-1.2-.8,1.2h-1.5l1.5-2.2-1.5-2.1Z"/>
          <path class="cls-2" d="M73,6.5c0-.8.8-1.3,1.8-1.3s.6,0,.8.1h0c0-.4-.3-.7-.8-.7s-.8.2-1,.5l-.8-.8c.3-.4,1-.9,1.9-.9s2.1.7,2.1,1.8v2.5h-1.3v-.4c-.2.3-.6.5-1.1.5-.9,0-1.6-.5-1.6-1.3ZM74.9,6.9c.4,0,.8-.3.8-.7-.1,0-.4-.1-.6-.1-.4,0-.7.2-.7.4s.2.4.5.4Z"/>
          <path class="cls-2" d="M77.8,5.6c0-1.3,1-2.2,2.3-2.2s1.6.5,2,1.1l-1.1.8c-.2-.4-.5-.6-.9-.6s-.9.4-.9.9.4.9.9.9.8-.3.9-.6l1,.8c-.4.7-1.1,1.1-2,1.1-1.3,0-2.2-.9-2.2-2.2Z"/>
          <path class="cls-2" d="M84.8,3.4c1.3,0,2.3.9,2.3,2.2s-1,2.2-2.3,2.2-2.3-.9-2.3-2.2,1-2.2,2.3-2.2ZM84.8,6.5c.5,0,.9-.4.9-.9s-.4-.9-.9-.9-.9.4-.9.9.4.9.9.9Z"/>
          <path class="cls-2" d="M88,3.5h1.3v.4c.3-.4.9-.5,1.3-.5s1.1.2,1.3.7c.3-.5.9-.7,1.4-.7.8,0,1.6.5,1.6,1.6v2.7h-1.4v-2.3c0-.5-.3-.7-.7-.7s-.7.2-.7.7v2.3h-1.4v-2.3c0-.5-.4-.7-.7-.7s-.7.2-.7.7v2.3h-1.4V3.5Z"/>
          <path class="cls-2" d="M102.7,7.7h-4.5V1.8h1.4v4.8h3v1.2Z"/>
          <path class="cls-2" d="M104.1,1.4c.4,0,.8.3.8.8s-.3.8-.8.8-.8-.3-.8-.8.3-.8.8-.8ZM104.8,3.5v4.2h-1.4V3.5h1.4Z"/>
          <path class="cls-2" d="M106,3.5h1.3v.4c.3-.4.9-.5,1.3-.5s1.1.2,1.3.7c.3-.5.9-.7,1.4-.7.8,0,1.6.5,1.6,1.6v2.7h-1.4v-2.3c0-.5-.3-.7-.7-.7s-.7.2-.7.7v2.3h-1.4v-2.3c0-.5-.4-.7-.7-.7s-.7.2-.7.7v2.3h-1.4V3.5Z"/>
          <path class="cls-2" d="M114.8,1.4c.4,0,.8.3.8.8s-.3.8-.8.8-.8-.3-.8-.8.3-.8.8-.8ZM115.5,3.5v4.2h-1.4V3.5h1.4Z"/>
          <path class="cls-2" d="M116.3,3.5h.7v-1.4h1.3v1.4h1.3v1.1h-1.2v1.4c0,.5.3.6.6.6s.5,0,.7-.1v1.1c-.2.1-.6.2-1,.2-1,0-1.7-.5-1.7-1.6v-1.6h-.7v-1.1Z"/>
          <path class="cls-2" d="M122.1,3.4c1,0,2.1.7,2.1,2.1s0,.3,0,.5h-2.8c0,.5.5.7.9.7s.7-.2.9-.5l.9.8c-.3.5-1,.9-1.8.9-1.3,0-2.3-.9-2.3-2.2s.9-2.2,2.1-2.2ZM121.4,5.2h1.6c0-.3-.3-.7-.8-.7s-.8.3-.8.7Z"/>
          <path class="cls-2" d="M124.9,5.6c0-1.3.8-2.2,2-2.2s1,.2,1.3.5V1.5h1.3v6.2h-1.3v-.3c-.3.3-.8.4-1.3.4-1.2,0-2-.9-2-2.2ZM127.2,6.6c.5,0,.9-.4.9-1s-.4-1-.9-1-.9.4-.9,1,.4,1,.9,1Z"/>
        </g>
        <g>
          <path class="cls-1" d="M29.1,16.7h-.9l2.2-5.3h.9l2.2,5.3h-.9l-.4-1.1h-2.7l-.4,1.1ZM29.8,14.9h2.2l-1.1-2.6-1.1,2.6Z"/>
          <path class="cls-1" d="M34.2,16.7v-3.8h.8v.5c.1-.2.5-.6,1.2-.6,1,0,1.6.6,1.6,1.6v2.3h-.8v-2.1c0-.6-.3-1-.9-1s-1,.4-1,1v2.1h-.8Z"/>
          <path class="cls-1" d="M38.8,16.7v-3.8h.8v.5c.1-.2.5-.6,1.2-.6,1,0,1.6.6,1.6,1.6v2.3h-.8v-2.1c0-.6-.3-1-.9-1s-1,.4-1,1v2.1h-.8Z"/>
          <path class="cls-1" d="M44.2,13v2.1c0,.6.3,1,.9,1s1.1-.4,1.1-1v-2.1h.8v3.8h-.8v-.5c-.1.2-.5.6-1.2.6-1,0-1.6-.6-1.6-1.6v-2.3h.8Z"/>
          <path class="cls-1" d="M49.5,14.5c.4,0,.8,0,.9.2v-.2c0-.5-.4-.8-1-.8s-.9.3-1.1.5l-.5-.5c.3-.4.9-.8,1.6-.8,1.1,0,1.7.6,1.7,1.5v2.3h-.8v-.5c-.2.4-.7.6-1.2.6-.8,0-1.4-.4-1.4-1.1s.7-1.2,1.7-1.2ZM49.4,16.2c.6,0,1-.4,1-.9-.2,0-.5-.2-.9-.2s-.9.2-.9.6.3.5.8.5Z"/>
          <path class="cls-1" d="M53.1,16.7h-.8v-5.5h.8v5.5Z"/>
          <path class="cls-1" d="M58.5,11.4c1.1,0,1.8.6,1.8,1.6s-.4,1.3-1.1,1.5l1.3,2.2h-1l-1.2-2.1h-1.3v2.1h-.8v-5.3h2.3ZM57.1,12.2v1.8h1.4c.7,0,1-.4,1-.9s-.3-.9-1-.9h-1.4Z"/>
          <path class="cls-1" d="M63,12.9c1.1,0,1.8.8,1.8,1.8s0,.2,0,.4h-2.9c0,.6.5,1,1.2,1s.8-.2,1.1-.6l.6.4c-.3.6-1,1-1.7,1-1.1,0-2-.8-2-1.9s.8-2,1.9-2ZM64,14.5c0-.5-.5-.9-1-.9s-1,.4-1.1.9h2.1Z"/>
          <path class="cls-1" d="M65.7,18.3v-5.3h.8v.5c.3-.4.7-.6,1.3-.6,1.1,0,1.9.8,1.9,2s-.8,1.9-1.9,1.9-1.1-.2-1.3-.6v2.1h-.8ZM67.7,16.1c.7,0,1.2-.5,1.2-1.2s-.5-1.3-1.2-1.3-1.2.6-1.2,1.3.5,1.2,1.2,1.2Z"/>
          <path class="cls-1" d="M70.3,14.8c0-1.1.9-2,2-2s2,.9,2,2-.9,2-2,2-2-.9-2-2ZM72.3,16.1c.7,0,1.2-.5,1.2-1.2s-.5-1.2-1.2-1.2-1.2.5-1.2,1.2.5,1.2,1.2,1.2Z"/>
          <path class="cls-1" d="M75.2,16.7v-3.8h.8v.5c.2-.4.6-.6,1-.6s.5,0,.5,0v.7c-.1,0-.3,0-.5,0-.4,0-1,.2-1,1.1v2h-.8Z"/>
          <path class="cls-1" d="M77.8,13.6v-.7h.7v-1.2h.8v1.2h1.2v.7h-1.2v1.9c0,.4.2.6.6.6s.4,0,.6-.1v.7c0,0-.4.2-.7.2-.8,0-1.3-.4-1.3-1.2v-2h-.7Z"/>
          <path class="cls-1" d="M84.6,11.3c1.1,0,1.8.7,1.8,1.6s-.8,1.5-1.5,2c-.4.3-1,.8-1,1h2.6v.8h-3.6v-.4c0-.9.9-1.5,1.6-2,.7-.5,1.1-.8,1.1-1.4s-.4-.9-.9-.9-.9.3-1.1.8l-.7-.3c.3-.7,1-1.2,1.8-1.2Z"/>
          <path class="cls-1" d="M87.2,14.1c0-1.7.8-2.7,2.1-2.7s2.1,1.1,2.1,2.7-.8,2.7-2.1,2.7-2.1-1.1-2.1-2.7ZM88,14.1c0,1.2.5,2,1.3,2s1.3-.8,1.3-2-.5-2-1.3-2-1.3.8-1.3,2Z"/>
          <path class="cls-1" d="M93.8,11.3c1.1,0,1.8.7,1.8,1.6s-.8,1.5-1.5,2c-.4.3-1,.8-1,1h2.6v.8h-3.6v-.4c0-.9.9-1.5,1.6-2,.7-.5,1.1-.8,1.1-1.4s-.4-.9-.9-.9-.9.3-1.1.8l-.7-.3c.3-.7,1-1.2,1.8-1.2Z"/>
          <path class="cls-1" d="M97.1,15.2c.2.5.6.8,1.2.8s1-.3,1-.8-.4-.8-1.1-.8h-.7v-.7h.7c.5,0,1-.3,1-.8s-.4-.8-.9-.8-.9.4-1.1.8l-.7-.4c.3-.7,1-1.2,1.8-1.2s1.8.6,1.8,1.5-.3,1-.8,1.2c.5.2.9.7.9,1.2,0,.9-.8,1.6-1.8,1.6s-1.6-.4-1.9-1.2l.7-.4Z"/>
          <path class="cls-1" d="M103.5,14.8h-2.6v-.7h2.6v.7Z"/>
          <path class="cls-1" d="M105.7,11.3c1.1,0,1.8.7,1.8,1.6s-.8,1.5-1.5,2c-.4.3-1,.8-1,1h2.6v.8h-3.6v-.4c0-.9.9-1.5,1.6-2,.7-.5,1.1-.8,1.1-1.4s-.4-.9-.9-.9-.9.3-1.1.8l-.7-.3c.3-.7,1-1.2,1.8-1.2Z"/>
          <path class="cls-1" d="M108.1,14.7l2.4-3.3h1v3.2h.8v.7h-.8v1.4h-.8v-1.4h-2.5v-.7ZM109.1,14.6h1.6v-2.2l-1.6,2.2Z"/>
        </g>
      </g>
    </g>
  </g>
</svg>