<?xml version="1.0" encoding="UTF-8"?>
<svg id="Layer_1" xmlns="http://www.w3.org/2000/svg" xmlns:xlink="http://www.w3.org/1999/xlink" viewBox="0 0 43.88 21.02">
  <defs>
    <style>
      .cls-1 {
        fill: none;
      }

      .cls-2 {
        fill: #58595b;
      }

      .cls-3 {
        fill: #fff;
      }

      .cls-4 {
        clip-path: url(#clippath);
      }
    </style>
    <clipPath id="clippath">
      <rect class="cls-1" y="0" width="43.88" height="21.02"/>
    </clipPath>
  </defs>
  <g class="cls-4">
    <path class="cls-3" d="M40.95,12.85c1.55,0,2.8-1.26,2.8-2.8s-1.26-2.8-2.8-2.8-2.8,1.26-2.8,2.8,1.26,2.8,2.8,2.8"/>
    <path class="cls-2" d="M15.72,16c-3.23-2.24-7.73-3.35-10.99-3.89,4.93-1.31,8.53-4.58,10.77-7.27.88.73,1.58,1.66,2.04,2.72-1.06.35-1.81,1.33-1.81,2.5,0,1.28.91,2.35,2.12,2.59-.4,1.31-1.15,2.46-2.14,3.36ZM18.17,10.52c0,.37-.04.73-.09,1.08-.73-.14-1.28-.78-1.28-1.55,0-.7.46-1.29,1.1-1.5.17.63.27,1.28.27,1.96ZM16.58,16.65c1.63-1.54,2.66-3.72,2.66-6.13,0-.96-.17-1.87-.46-2.73-.01-.03-.02-.06-.03-.09-.51-1.45-1.41-2.72-2.57-3.68,1.39-1.81,2.11-3.2,2.13-3.24.13-.26.02-.58-.24-.71-.26-.13-.58-.03-.71.24-.02.04-.7,1.36-2.03,3.1-1.31-.84-2.86-1.33-4.53-1.33-.29,0-.53.24-.53.53s.24.53.53.53c1.41,0,2.73.41,3.85,1.1-2.7,3.23-7.42,7.29-14.11,7.39-.29,0-.52.23-.52.52,0,.29.22.53.5.54.12,0,9.01.53,14.32,4-1.16.76-2.55,1.21-4.04,1.21-.29,0-.53.24-.53.53s.24.53.53.53c1.85,0,3.56-.61,4.96-1.62,1.16.92,2.08,2.02,2.57,3.34.08.21.28.34.5.34.06,0,.12-.01.19-.03.28-.1.41-.41.31-.68-.54-1.44-1.51-2.65-2.73-3.66Z"/>
    <path class="cls-2" d="M22.36,9.52h-2.02c-.29,0-.53.24-.53.53s.24.53.53.53h2.02c.3,0,.53-.24.53-.53s-.24-.53-.53-.53"/>
    <path class="cls-2" d="M26.2,9.52h-2.02c-.3,0-.53.24-.53.53s.24.53.53.53h2.02c.3,0,.53-.24.53-.53s-.24-.53-.53-.53"/>
    <path class="cls-2" d="M29.52,9.52h-1.64c-.3,0-.53.24-.53.53s.24.53.53.53h1.64c.3,0,.53-.24.53-.53s-.24-.53-.53-.53"/>
    <path class="cls-2" d="M32.58,9.52h-1.46c-.3,0-.53.24-.53.53s.24.53.53.53h1.46c.29,0,.53-.24.53-.53s-.24-.53-.53-.53"/>
    <path class="cls-2" d="M35.9,9.52h-1.86c-.3,0-.53.24-.53.53s.24.53.53.53h1.86c.29,0,.53-.24.53-.53s-.24-.53-.53-.53"/>
    <path class="cls-2" d="M40.96,11.92c-1.03,0-1.86-.84-1.86-1.86s.84-1.86,1.86-1.86,1.86.84,1.86,1.86-.84,1.86-1.86,1.86M40.96,7.13c-1.61,0-2.92,1.31-2.92,2.93s1.31,2.93,2.92,2.93,2.92-1.31,2.92-2.93-1.31-2.93-2.92-2.93"/>
  </g>
</svg>