<?xml version="1.0" encoding="UTF-8"?>
<svg id="Layer_1" xmlns="http://www.w3.org/2000/svg" xmlns:xlink="http://www.w3.org/1999/xlink" viewBox="0 0 31.32 35.63">
  <defs>
    <style>
      .cls-1 {
        fill: none;
      }

      .cls-2 {
        fill: #58595b;
      }

      .cls-3 {
        fill: #fff;
      }

      .cls-4 {
        clip-path: url(#clippath);
      }
    </style>
    <clipPath id="clippath">
      <rect class="cls-1" x="0" width="31.32" height="35.63"/>
    </clipPath>
  </defs>
  <g class="cls-4">
    <path class="cls-3" d="M9.85,14.98c2.9,0,5.26-2.35,5.26-5.26s-2.35-5.26-5.26-5.26-5.26,2.35-5.26,5.26,2.35,5.26,5.26,5.26"/>
    <path class="cls-2" d="M9.77,10.85c-.6,0-1.08-.48-1.08-1.08s.48-1.08,1.08-1.08,1.08.48,1.08,1.08-.48,1.08-1.08,1.08M9.77,7.62c-1.19,0-2.15.97-2.15,2.16s.96,2.15,2.15,2.15,2.15-.97,2.15-2.15c0-1.19-.96-2.15-2.15-2.16"/>
    <path class="cls-2" d="M10.31,14.59v-1.05c0-.3-.24-.54-.54-.54s-.54.24-.54.54v1.05c-2.25-.25-4.02-2.03-4.28-4.28h1.05c.3,0,.54-.24.54-.54s-.24-.54-.54-.54h-1.05c.26-2.25,2.03-4.02,4.28-4.28v1.05c0,.3.24.54.54.54s.54-.24.54-.54v-1.05c2.25.25,4.02,2.03,4.28,4.28h-1.05c-.3,0-.54.24-.54.54s.24.54.54.54h1.05c-.25,2.25-2.03,4.02-4.28,4.28M17.31,9.23h-1.64c-.26-2.84-2.52-5.1-5.36-5.36v-1.64c0-.3-.24-.54-.54-.54s-.54.24-.54.54v1.64c-2.84.26-5.1,2.52-5.36,5.36h-1.64c-.3,0-.54.24-.54.54s.24.54.54.54h1.64c.26,2.84,2.52,5.1,5.36,5.36v1.64c0,.3.24.54.54.54s.54-.24.54-.54v-1.64c2.84-.26,5.1-2.52,5.36-5.36h1.64c.3,0,.54-.24.54-.54s-.24-.54-.54-.54"/>
    <path class="cls-2" d="M21.62,34.55c-.6,0-1.08-.48-1.08-1.08,0-.6.48-1.08,1.08-1.08.59,0,1.08.48,1.08,1.08,0,.59-.48,1.08-1.08,1.08M19.47,20.55c0-.59.48-1.08,1.08-1.07.59,0,1.08.48,1.08,1.08,0,.59-.48,1.08-1.08,1.08-.59,0-1.07-.47-1.08-1.06v-.02M9.77,18.39c-4.76,0-8.62-3.86-8.62-8.62S5.01,1.15,9.77,1.15s8.62,3.86,8.62,8.62c0,4.76-3.86,8.61-8.62,8.62M28.63,27.55c0,.59-.48,1.08-1.08,1.08-.59,0-1.08-.48-1.07-1.08,0-.59.48-1.07,1.07-1.08.6,0,1.08.48,1.08,1.08M26.46,29.4c.33.2.7.3,1.09.3,1.19,0,2.16-.96,2.16-2.16s-.96-2.15-2.16-2.15c-.38,0-.76.11-1.09.31l-4.07-4.07c.2-.33.3-.7.31-1.09,0-1.19-.97-2.15-2.15-2.15-.38,0-.76.11-1.09.3l-2.47-2.47c3.58-4.01,3.24-10.16-.76-13.74C12.22-1.1,6.07-.76,2.48,3.24c-3.59,4.01-3.24,10.16.76,13.75,3.7,3.31,9.29,3.31,12.98,0l2.47,2.47c-.2.33-.3.7-.31,1.09,0,1.19.97,2.15,2.16,2.15.38,0,.76-.11,1.09-.3l4.06,4.06c-.41.67-.41,1.51,0,2.18l-2.99,2.99c-.33-.2-.7-.3-1.09-.3-1.19,0-2.16.96-2.16,2.16s.97,2.15,2.16,2.15,2.15-.97,2.15-2.15c0-.38-.11-.76-.3-1.09l2.99-2.99Z"/>
    <path class="cls-2" d="M24.58,26.2c-.29-.08-.58.08-.67.37-.18.64-.18,1.32,0,1.97.08.29.38.45.67.37.29-.08.45-.38.37-.67-.12-.45-.12-.93,0-1.37.08-.29-.08-.58-.37-.67"/>
    <path class="cls-2" d="M27.55,23.78c-.33,0-.66.04-.98.13-.29.08-.45.38-.37.67.08.29.38.45.67.37.22-.06.45-.09.69-.09,1.49,0,2.69,1.21,2.69,2.69s-1.21,2.69-2.69,2.69c-.23,0-.46-.03-.69-.09-.29-.08-.58.08-.67.37-.08.29.08.59.37.67.32.09.65.14.98.13,2.08,0,3.77-1.69,3.77-3.77s-1.69-3.77-3.77-3.77"/>
  </g>
</svg>