<?xml version="1.0" encoding="UTF-8"?>
<svg id="Layer_1" xmlns="http://www.w3.org/2000/svg" xmlns:xlink="http://www.w3.org/1999/xlink" viewBox="0 0 26.87 26.88">
  <defs>
    <style>
      .cls-1 {
        fill: none;
      }

      .cls-2 {
        fill: #58595b;
      }

      .cls-3 {
        fill: #fff;
      }

      .cls-4 {
        clip-path: url(#clippath);
      }
    </style>
    <clipPath id="clippath">
      <rect class="cls-1" width="26.87" height="26.88"/>
    </clipPath>
  </defs>
  <polygon class="cls-3" points="19.69 1.28 18.19 4.23 14.7 4.77 17.05 7.26 16.6 10.5 19.69 8.99 22.66 10.5 22.24 7.21 24.51 4.69 21.19 4.29 19.69 1.28"/>
  <g class="cls-4">
    <path class="cls-2" d="M4.97,26.07L.79,19.93l2.73-1.73,3.91,5.96-2.46,1.91h0ZM23.02,16.63c-.66.42-3.49,2.08-3.52,2.1-.16.09-.21.29-.12.45.09.16.29.21.45.12.12-.07,2.87-1.69,3.54-2.11.52-.33,1.29.11,1.67.52.16.18.17.41.15.58-.04.34-.23.68-.48.86-1.93,1.32-7.35,4.95-7.95,5.22-.39,0-2.6-.62-4.21-1.07-2.64-.74-3.45-.95-3.7-.91-.47.07-1.02.53-1.28.77l-2.89-4.41c1.85-1.46,4.04-2.93,4.49-2.85.75.11,6.01,1.91,7.74,2.5.36.12.61.21.73.24.2.07.34.19.43.38.12.26.12.61,0,.92-.19.49-1.09.98-1.72.8-.81-.25-3.2-.89-3.3-.92-.17-.05-.35.06-.4.23-.05.17.06.35.23.4.03,0,2.48.67,3.28.91.16.05.33.07.5.07.87,0,1.77-.6,2.02-1.26.19-.48.18-1.02-.02-1.43-.16-.35-.45-.6-.82-.73-.11-.04-.37-.12-.72-.24-3.28-1.12-7.13-2.41-7.85-2.52-.91-.13-3.74,2-4.96,2.95l-.41-.62c-.1-.15-.3-.19-.45-.1L.15,19.56c-.08.05-.13.12-.14.21-.02.09,0,.18.05.25l4.57,6.71c.05.07.13.12.22.14.02,0,.03,0,.05,0,.07,0,.14-.02.2-.07l2.97-2.31c.13-.11.17-.3.07-.44l-.23-.35c.28-.27.76-.64.99-.68.26,0,2.03.49,3.45.89,2.83.79,3.98,1.09,4.42,1.09.06,0,.1,0,.14-.02.59-.17,8.07-5.26,8.15-5.31.4-.28.7-.79.77-1.32.05-.43-.06-.82-.32-1.1-.64-.7-1.7-1.14-2.5-.63h0Z"/>
    <path class="cls-2" d="M18.13,4.64c.11-.02.2-.08.25-.18l1.23-2.48,1.23,2.48c.05.1.14.16.25.18l2.74.4-1.98,1.93c-.08.08-.11.18-.09.29l.47,2.73-2.45-1.29s-.1-.04-.15-.04-.11.01-.15.04l-2.45,1.29.47-2.73c.02-.1-.02-.22-.09-.29l-1.98-1.93,2.74-.4ZM16.79,7.32l-.55,3.21c-.02.12.03.25.13.32.1.07.24.08.34.03l2.89-1.52,2.89,1.52c.05.03.1.04.15.04.07,0,.14-.02.19-.06.1-.07.15-.2.13-.32l-.55-3.21,2.33-2.27c.09-.09.12-.22.08-.34-.04-.12-.14-.21-.27-.22l-3.22-.47-1.44-2.92c-.11-.22-.48-.22-.59,0l-1.44,2.92-3.22.47c-.12.02-.23.1-.27.22-.04.12,0,.25.08.34l2.33,2.27h0Z"/>
    <path class="cls-2" d="M19.28,10.48v3.22c0,.18.15.33.33.33s.33-.15.33-.33v-3.22c0-.18-.15-.33-.33-.33s-.33.15-.33.33"/>
    <path class="cls-2" d="M16.85,3.34c.07.08.16.12.25.12.07,0,.15-.03.21-.08.14-.11.16-.32.04-.46L15.05.15c-.11-.14-.32-.16-.46-.04-.14.12-.16.32-.04.46l2.3,2.77Z"/>
    <path class="cls-2" d="M12.67,9.43s.09-.01.13-.03l3.04-1.29c.17-.07.25-.26.17-.43-.07-.17-.26-.25-.43-.17l-3.04,1.28c-.17.07-.25.26-.17.43.05.12.17.2.3.2"/>
    <path class="cls-2" d="M26.67,8.82l-3.05-1.3c-.16-.07-.36,0-.43.17-.07.17,0,.36.17.43l3.05,1.3s.09.03.13.03c.13,0,.25-.07.3-.2.07-.17,0-.36-.17-.43"/>
    <path class="cls-2" d="M22.09,3.46c.09,0,.19-.04.25-.12l2.29-2.8c.11-.14.1-.35-.05-.46s-.35-.09-.46.05l-2.29,2.8c-.11.14-.09.35.05.46.06.05.13.08.21.08h0Z"/>
  </g>
</svg>