<?xml version="1.0" encoding="UTF-8"?>
<svg id="Layer_1" xmlns="http://www.w3.org/2000/svg" xmlns:xlink="http://www.w3.org/1999/xlink" viewBox="0 0 22.21 21.76">
  <defs>
    <style>
      .cls-1, .cls-2 {
        fill: none;
      }

      .cls-3 {
        fill: #231f20;
      }

      .cls-2 {
        stroke: #231f20;
        stroke-miterlimit: 10;
        stroke-width: .55px;
      }

      .cls-4 {
        fill: #fff;
      }

      .cls-5 {
        clip-path: url(#clippath);
      }
    </style>
    <clipPath id="clippath">
      <rect class="cls-1" width="22.21" height="21.76"/>
    </clipPath>
  </defs>
  <g class="cls-5">
    <path class="cls-4" d="M5.34,4.84s-1.14.26-1.22.28c-.08.02-.32.06-.54.32-.22.26-.42.5-.44.66-.02.16-.08.28-.08.42s-.04.08.06.42c.1.34.16.52.2.72.04.2.06.36.16.44.1.08.3.28.58.42.28.14.52.26.82.26s.46.54.46-.38v-3.57Z"/>
    <path class="cls-4" d="M17.09,8.93s1.14-.26,1.23-.28c.08-.02.32-.06.54-.32.22-.26.42-.5.44-.66.02-.16.08-.28.08-.42s.04-.08-.06-.42c-.1-.34-.16-.52-.2-.72-.04-.2-.06-.36-.16-.44-.1-.08-.3-.28-.58-.42-.28-.14-.52-.26-.82-.26s-.46-.54-.46.38v3.57Z"/>
    <path class="cls-2" d="M16.93,4.82h.46c1.13,0,2.04.91,2.04,2.04s-.91,2.04-2.04,2.04h-.29v-2.57c0-3.17-2.43-5.89-5.6-6.04-3.38-.16-6.16,2.53-6.16,5.87v2.74h-.3c-1.12,0-2.04-.91-2.04-2.04s.91-2.04,2.04-2.04h.46M16.2,7.73c0,3.25-1.73,5.89-4.98,5.89s-4.98-2.64-4.98-5.89S7.96,1.84,11.21,1.84s4.98,2.64,4.98,5.89Z"/>
    <path class="cls-3" d="M8.8,10.15c.83,1.56,3.99,1.56,4.82,0-.24,2.26-4.58,2.26-4.82,0"/>
    <path class="cls-3" d="M14.34,7.97c-.57-.94-1.6-.94-2.17,0-.27-1.64,2.44-1.64,2.17,0"/>
    <path class="cls-3" d="M10.09,7.97c-.57-.94-1.6-.94-2.17,0-.27-1.64,2.44-1.64,2.17,0"/>
    <path class="cls-2" d="M7.69,12.12C3.38,13.58.27,16.96.27,21.76"/>
    <path class="cls-3" d="M22.15,21.74c-.28-4.44-3.39-7.94-7.42-9.62,4.32.87,7.99,5.11,7.42,9.62"/>
  </g>
</svg>