<?xml version="1.0" encoding="UTF-8"?>
<svg id="Layer_1" xmlns="http://www.w3.org/2000/svg" xmlns:xlink="http://www.w3.org/1999/xlink" viewBox="0 0 20.74 22.78">
  <defs>
    <style>
      .cls-1, .cls-2 {
        fill: none;
      }

      .cls-3 {
        fill: #231f20;
      }

      .cls-4 {
        fill: #ebebec;
      }

      .cls-2 {
        stroke: #231f20;
        stroke-miterlimit: 10;
        stroke-width: .52px;
      }

      .cls-5 {
        fill: #fff;
      }

      .cls-6 {
        clip-path: url(#clippath);
      }
    </style>
    <clipPath id="clippath">
      <rect class="cls-1" y="0" width="20.74" height="22.78"/>
    </clipPath>
  </defs>
  <g class="cls-6">
    <path class="cls-2" d="M15.11,9.52c0,3.07-1.64,5.56-4.71,5.56s-4.71-2.49-4.71-5.56,1.64-5.56,4.71-5.56,4.71,2.49,4.71,5.56Z"/>
    <path class="cls-3" d="M7.07,13.66C3.25,15.25.33,18.58.06,22.78c-.54-4.27,2.92-8.28,7.01-9.12"/>
    <path class="cls-3" d="M13.68,13.66c3.81,1.59,6.74,4.92,7.01,9.12.54-4.27-2.92-8.28-7.01-9.12"/>
    <path class="cls-4" d="M10.37,9.38c2.23,0,4.03-1.31,4.03-2.93s-1.81-2.94-4.03-2.94-4.03,1.32-4.03,2.94,1.8,2.93,4.03,2.93"/>
    <path class="cls-3" d="M8.31,11.41c.74,1.38,3.53,1.38,4.26,0-.21,2-4.05,2-4.26,0"/>
    <path class="cls-3" d="M13.21,9.48c-.5-.84-1.42-.83-1.92,0-.24-1.44,2.15-1.45,1.92,0"/>
    <path class="cls-3" d="M9.45,9.48c-.5-.84-1.42-.83-1.92,0-.24-1.44,2.15-1.45,1.92,0"/>
    <path class="cls-5" d="M6.54,5.49s4.77-.64,7.57.07c.04.05.23-3.33-1.38-4.22-1.61-.89-.85-.78-2.36-.76s-3.63.41-3.83,4.91"/>
    <path class="cls-3" d="M14.19,5.64s-.01,0-.01,0c-2.53-.43-5.09-.43-7.62,0-.03,0-.05,0-.07-.02-.02-.02-.03-.04-.03-.07,0-.02-.05-.62.06-1.41.1-.73.36-1.76,1.02-2.54.59-.69,1.39-1.06,2.39-1.12.28-.02.59-.02.87,0,1,.06,1.8.44,2.39,1.12.66.78.93,1.81,1.03,2.54.11.79.06,1.39.06,1.41,0,.03-.01.05-.03.07-.02.01-.04.02-.06.02h0ZM10.37.65c-.15,0-.29,0-.42.01-.95.06-1.71.42-2.26,1.06-.64.74-.89,1.74-.98,2.44-.08.59-.07,1.07-.07,1.28,2.48-.41,4.99-.41,7.48,0,0-.2.02-.69-.07-1.28-.1-.71-.35-1.7-.98-2.44-.55-.65-1.32-1.01-2.26-1.06-.14,0-.28-.01-.43-.01Z"/>
    <path class="cls-3" d="M6.9,7.56c-.23,0-.37-.06-.46-.14-.29-.26-.29-.89.02-1.89.01-.05.07-.08.11-.06.05.01.07.07.06.11-.37,1.21-.2,1.58-.07,1.7.11.1.5.26,1.66-.33.63-.32,1.37-.48,2.15-.48s1.52.17,2.15.48c1.16.59,1.55.42,1.66.33.13-.12.3-.49-.07-1.7-.02-.05.01-.1.06-.11.05-.01.1.01.11.06.3,1,.31,1.63.02,1.89-.21.18-.7.28-1.86-.3-1.24-.62-2.9-.62-4.13,0-.66.33-1.1.44-1.4.44h0Z"/>
    <path class="cls-3" d="M10.86.67c-.05,0-.09-.04-.09-.09,0-.22-.17-.39-.39-.39h-.02c-.21,0-.39.18-.39.39,0,.05-.04.09-.09.09s-.09-.04-.09-.09c0-.32.26-.58.57-.58h.02c.31,0,.57.26.57.58,0,.05-.04.09-.09.09"/>
  </g>
</svg>