<?xml version="1.0" encoding="UTF-8"?>
<svg id="Layer_1" xmlns="http://www.w3.org/2000/svg" xmlns:xlink="http://www.w3.org/1999/xlink" viewBox="0 0 24.8 18.34">
  <defs>
    <style>
      .cls-1 {
        fill: none;
      }

      .cls-2 {
        fill: #231f20;
      }

      .cls-3 {
        fill: #fff;
      }

      .cls-4 {
        clip-path: url(#clippath);
      }
    </style>
    <clipPath id="clippath">
      <rect class="cls-1" x="0" y="0" width="24.8" height="18.33"/>
    </clipPath>
  </defs>
  <g class="cls-4">
    <path class="cls-3" d="M5.99,9.85l-2.48,2.65s.24.57.32.67c.08.1.32.29.44.35.12.07.59.2.72.14.14-.07.12.4.1.45-.02.05-.08.69-.05.82.03.13.15.34.28.42.13.08.22.24.59.29.37.05.57,0,.82,0s.62-.14.66-.08c.03.05.15.2.18.28.03.08-.07.12.12.25.18.13.25.18.45.27.2.08.57.08.69.08s.12-.12.17,0c.05.12.14.2.18.42.05.22.5.72.59.72s.52-.07.59-.1c.07-.03,1.12-1.26,1.14-1.31.02-.05.1-.77,0-.82-.1-.05-.62-.35-.72-.32-.1.03-.32.07-.32.02s-.03-.81-.03-.81l-.08-.35s-.05-.32-.3-.4c-.25-.08-.34-.08-.44-.1-.1-.02-.3-.08-.3-.17s.02-.18.05-.27c.03-.08.03-.12.03-.12,0,0,0,.08.02-.27s-.08-.75-.15-.87c-.07-.12-.28-.45-.44-.52-.15-.07-.32-.17-.52-.12-.2.05-.5.12-.57.15-.07.03-.19.07-.19.07,0,0-.33-.47-.34-.55-.02-.08-.13-.33-.2-.44-.07-.1-.22-.18-.35-.28-.13-.1-.2-.15-.25-.15h-.39Z"/>
    <path class="cls-2" d="M18.99,12.09c-.66-.93-3.23-4.57-3.96-5.34-.83-.88-2.49-1.5-2.82-1.5-.23,0-.46.22-.96.72-.26.26-.56.56-.87.82-.55.46-.88.21-1.12.03-.02-.01-.03-.03-.05-.04-.11-.09-.2-.66-.09-.82.22-.33,1.91-2.64,2.36-2.94.28-.19,1.1-.03,1.58.14.6.22,2.57.93,3,.89.37-.03,1.02-.51,1.37-.79l4.61,6.57-3.03,2.25ZM19.17,13.67c-.03.2-.15.38-.32.51l-.47.33c-.35.25-.84.16-1.09-.18h0s-.02-.03-.02-.03c-.03-.05-.06-.1-.1-.15-.01-.01-.02-.03-.04-.04l-1.78-2.36c-.08-.11-.24-.14-.35-.06-.11.08-.14.24-.06.35,0,0,0,0,0,.01l1.9,2.52c.18.33.1.75-.19.99l-.16.13c-.33.27-.83.22-1.1-.11l-1.66-2.04c-.09-.1-.25-.11-.36-.02-.1.09-.11.23-.03.34l1.41,1.73s.02.04.04.06c.25.3.22.74-.08,1l-.11.09c-.3.25-.74.22-1-.08l-.87-1.02-.06-.07s-.01-.01-.02-.02l-.22-.26c-.09-.11-.25-.12-.35-.03-.1.09-.12.25-.03.35l.29.34.71.87c.2.25.16.61-.08.81l-.09.07c-.25.2-.61.16-.81-.09h0s-.69-.79-.69-.79l.17-.19c.39-.45.35-1.13-.1-1.53l-.05-.05c-.21-.18-.48-.28-.76-.27.18-.46.05-.99-.33-1.32l-.06-.05c-.21-.18-.48-.29-.76-.3.38-.63.26-1.44-.29-1.92-.3-.26-.69-.4-1.09-.37-.2.01-.4.06-.58.15v-.08c-.02-.34-.17-.65-.42-.87l-.11-.09c-.52-.46-1.32-.41-1.78.11l-.67.76c-.57-.57-1.26-1.01-1.62-1.22L7.44,3.2c.81.34,1.64.61,2.5.8-.61.78-1.19,1.6-1.26,1.69-.23.35-.15,1.24.21,1.5.01.01.03.02.05.03.24.18.89.67,1.75-.04.33-.27.64-.58.91-.85.23-.23.51-.51.63-.57.27.04,1.7.56,2.44,1.34.38.4,1.32,1.67,2.2,2.89,0,.03.02.06.04.09l2.13,3.01c.12.17.17.38.13.58h0ZM10.43,17.16c-.21.24-.58.26-.82.05l-.05-.04c-.24-.21-.26-.58-.05-.82l.76-.86c.21-.24.58-.26.82-.05l.05.05c.24.21.26.58.05.82l-.76.86ZM8.49,16.3c-.18.01-.36-.05-.5-.17l-.06-.05c-.28-.25-.31-.69-.06-.97l1.1-1.25c.25-.28.69-.31.97-.06l.06.05c.29.25.31.69.06.97l-1.1,1.25c-.12.14-.29.22-.48.23h0ZM5.6,15.32c-.42-.37-.45-1-.09-1.42l1.97-2.23c.18-.2.42-.32.69-.34h.07c.56,0,1.01.45,1.01,1,0,.25-.09.48-.25.67l-1.97,2.23c-.37.42-1,.46-1.42.09M4.72,13.58c-.2.01-.4-.05-.55-.19l-.1-.09c-.32-.28-.35-.76-.07-1.07l1.62-1.84c.28-.32.76-.35,1.07-.07,0,0,0,0,0,0l.1.09c.32.28.35.76.07,1.07l-1.62,1.84c-.13.15-.32.24-.52.25M24.75,9.53c-.08-.11-.24-.14-.35-.06,0,0,0,0,0,0l-1.36.95L16.71,1.4l1.36-.96c.11-.09.12-.25.03-.35-.08-.09-.21-.11-.31-.06l-1.57,1.1c-.11.08-.14.24-.06.35l.96,1.36c-.43.35-.94.69-1.12.71-.23.02-1.62-.44-2.78-.86-.14-.05-1.43-.49-2.03-.08-.2.13-.53.51-.89.95-.87-.18-1.73-.44-2.55-.78l.91-1.29c.08-.11.05-.27-.06-.35L7.01.04c-.12-.08-.27-.04-.35.07-.07.11-.05.26.06.34l1.36.95L1.76,10.42l-1.36-.95c-.11-.08-.27-.05-.35.06-.08.11-.05.27.06.35l1.57,1.1s.09.05.14.05c.08,0,.16-.04.21-.1l.64-.92c.33.19,1.02.62,1.58,1.19l-.63.71c-.46.52-.41,1.32.11,1.78l.1.09c.23.2.52.31.83.31.03,0,.05,0,.08,0,.03,0,.05,0,.08,0-.07.19-.09.39-.08.59.05.83.77,1.46,1.6,1.41.31-.02.6-.13.85-.33.04.28.18.53.39.71l.06.05c.22.19.5.3.78.3.02,0,.05,0,.08,0,.12,0,.23-.03.34-.07,0,.31.13.61.37.81l.05.05c.2.18.45.27.72.27h.07c.29-.02.56-.15.74-.37l.25-.29.65.74c.18.22.44.36.72.39.04,0,.08,0,.11,0,.25,0,.49-.09.68-.24l.09-.07c.22-.18.36-.44.39-.72.15.06.3.09.46.09.29,0,.57-.1.79-.29l.1-.09c.23-.2.38-.48.41-.78.17.08.36.12.55.12.29,0,.58-.1.81-.29l.16-.13c.27-.22.44-.54.47-.89.09.03.17.06.27.08.07.01.15.02.22.02.26,0,.52-.08.74-.24l.47-.33c.58-.41.71-1.21.31-1.79l-.2-.27,3.05-2.27.47.66c.05.07.12.1.21.1.05,0,.1-.02.14-.05l1.57-1.1c.11-.08.14-.23.06-.35"/>
  </g>
</svg>