<?xml version="1.0" encoding="UTF-8"?>
<svg id="Layer_1" xmlns="http://www.w3.org/2000/svg" xmlns:xlink="http://www.w3.org/1999/xlink" viewBox="0 0 21.83 21.81">
  <defs>
    <style>
      .cls-1 {
        fill: none;
      }

      .cls-2 {
        fill: #231f20;
      }

      .cls-3 {
        clip-path: url(#clippath-1);
      }

      .cls-4 {
        fill: #fff;
      }

      .cls-5 {
        clip-path: url(#clippath);
      }
    </style>
    <clipPath id="clippath">
      <rect class="cls-1" width="21.83" height="21.81"/>
    </clipPath>
    <clipPath id="clippath-1">
      <rect class="cls-1" width="21.83" height="21.81"/>
    </clipPath>
  </defs>
  <g class="cls-5">
    <path class="cls-2" d="M21.19,14.76c0,.19-.07.37-.21.51l-3.55,3.59c-.16.16-.36.28-.58.35l-4.85,1.51c-.36.11-.74.16-1.12.13l-5.94-.38v-5.11l.59-.47c.27-.22.57-.38.89-.49.32-.11.66-.17,1-.17.7,0,1.38.24,1.92.69l.66.54c.06.05.13.07.2.07h3.27c.19,0,.37.08.51.21.13.14.21.32.21.51,0,.4-.32.72-.71.72h-3.7c-.09,0-.17.03-.23.09l-.45.46c-.12.13-.12.33,0,.46.06.06.14.09.23.09s.16-.03.23-.09l.36-.36h6.57c.09,0,.17-.03.23-.1l3.25-3.28c.14-.14.31-.21.5-.21s.37.08.51.21c.14.14.21.32.21.51M16.17,15.92c0,.59-.47,1.06-1.05,1.07h-.48c.13-.21.2-.46.2-.72,0-.36-.14-.71-.4-.97-.26-.26-.6-.4-.96-.4h-3.16l-.58-.47c-.51-.42-1.13-.69-1.77-.79l2.3-1.72c.38-.28.88-.28,1.26,0l4.21,3.15c.27.2.43.53.43.86M11.68,10.7l.73-.61c.14-.11.16-.32.04-.45-.11-.14-.31-.16-.45-.05l-.73.61c.07-.57.28-1.34.81-1.78.71-.58,1.84-.49,2.33-.41-.02.51-.15,1.65-.85,2.23-.54.45-1.32.49-1.89.46M10.91,7.84c-1.96,0-3.56-1.61-3.56-3.6s1.6-3.6,3.56-3.6c.6,0,1.18.15,1.7.44,0,0,.69.43,1.05.88.52.64.8,1.45.8,2.28,0,1.98-1.59,3.6-3.56,3.6M9.74,8.42c.54.45.74,1.22.81,1.78l-.73-.61c-.14-.11-.34-.09-.45.05-.11.14-.09.34.05.45l.73.61c-.56.04-1.35-.01-1.89-.46-.71-.58-.83-1.73-.85-2.23.49-.08,1.63-.18,2.33.41M21.83,14.76c0-.37-.14-.71-.4-.97-.26-.26-.6-.4-.96-.4s-.7.14-.96.4l-2.91,2.94c.13-.24.21-.52.21-.82,0-.53-.26-1.06-.69-1.38l-4.21-3.15s-.03-.02-.04-.03h.09c.63,0,1.41-.12,2.01-.61,1.17-.97,1.09-2.93,1.09-3.01,0-.14-.11-.26-.24-.3-.04,0-.45-.11-1.01-.12.8-.77,1.3-1.86,1.3-3.07,0-.98-.34-1.93-.95-2.69,0,0-.61-.75-1.24-1.04C12.31.18,11.61,0,10.91,0,8.6,0,6.72,1.9,6.72,4.24c0,1.2.5,2.29,1.3,3.07-.55.01-.97.12-1.01.12-.14.03-.24.16-.24.3,0,.08-.08,2.05,1.09,3.01.59.49,1.37.62,2.01.62.03,0,.06,0,.09,0-.01,0-.03.02-.04.03l-2.98,2.23c-.24.03-.47.09-.7.17-.39.14-.75.34-1.08.6l-.63.5h-1.12v-.37c0-.18-.14-.32-.32-.32H.32c-.18,0-.32.14-.32.32v6.97c0,.18.14.32.32.32h2.76c.18,0,.32-.14.32-.32v-.37h1.22l6.23.39c.08,0,.16,0,.24,0,.38,0,.75-.06,1.11-.17l4.85-1.51c.32-.1.61-.28.84-.51l3.55-3.59c.25-.26.4-.6.4-.97"/>
  </g>
  <polygon class="cls-4" points="3.4 15.54 3.4 20.09 3.4 20.32 3.4 20.47 4.31 20.47 4.31 15.54 3.4 15.54"/>
  <g class="cls-3">
    <path class="cls-2" d="M12.33,3.07h-.69c0,.24-.06.45-.16.64-.1.18-.23.34-.39.46-.16.12-.34.21-.54.27-.2.06-.41.08-.62.07v.02c.11.11.21.22.31.34.1.12.2.24.3.36l1.27,1.61v.06h-.59l-1.41-1.81c-.05-.06-.11-.14-.17-.21-.06-.08-.12-.15-.18-.21-.06-.08-.13-.15-.2-.22l.16-.39c.21.05.42.06.62.04.2-.02.38-.07.54-.15s.29-.19.38-.34c.1-.15.15-.32.16-.53h-1.81v-.43h1.76c-.07-.2-.19-.36-.35-.46-.16-.1-.34-.16-.53-.16h-.88v-.44h3.23l-.22.44h-1.15v.03c.07.04.15.11.24.21.08.1.14.22.18.37h.96l-.22.43Z"/>
  </g>
  <polygon class="cls-4" points=".64 14.84 .64 21.16 2.76 21.16 2.76 20.32 2.76 20.09 2.76 14.84 .64 14.84"/>
</svg>