<?xml version="1.0" encoding="UTF-8"?>
<svg id="Layer_1" xmlns="http://www.w3.org/2000/svg" xmlns:xlink="http://www.w3.org/1999/xlink" viewBox="0 0 22.09 21.97">
  <defs>
    <style>
      .cls-1 {
        fill: none;
      }

      .cls-2 {
        fill: #231f20;
      }

      .cls-3 {
        fill: #fff;
      }

      .cls-4 {
        clip-path: url(#clippath);
      }
    </style>
    <clipPath id="clippath">
      <rect class="cls-1" y="0" width="22.08" height="21.97"/>
    </clipPath>
  </defs>
  <g class="cls-4">
    <path class="cls-2" d="M13.66,5.87c-.11,1.73-.38,2.98-.92,3.98-.54.99-1.35,1.75-2.55,2.49-.17.11-.39.11-.56,0-1.2-.74-2.02-1.5-2.55-2.49-.54-1-.81-2.25-.92-3.98-.05-.36.16-.7.5-.83,1.06-.3,2.15-.45,3.25-.46,1.1.01,2.19.17,3.25.46.34.12.55.47.5.82M7.91,4.18c.15-.99,1-1.72,2-1.72s1.85.73,2,1.72c-1.32-.23-2.68-.23-4,0M9.9,1.61c1.53,0,2.8,1.21,2.86,2.74h0c-.09-.02-.17-.04-.26-.06-.1-1.36-1.24-2.42-2.6-2.42s-2.5,1.06-2.6,2.42h0c-.09.02-.17.04-.26.06.07-1.53,1.33-2.74,2.86-2.74M13.36,4.5c0-1.91-1.55-3.45-3.45-3.45s-3.45,1.55-3.45,3.45h0c-.58.22-.95.8-.88,1.41.12,1.81.4,3.14.99,4.22.59,1.09,1.47,1.91,2.76,2.71.36.23.82.23,1.18,0,1.29-.8,2.17-1.62,2.76-2.71.58-1.08.87-2.41.99-4.22.06-.62-.3-1.2-.88-1.41"/>
    <path class="cls-2" d="M12.63,6.44h0c-.14,2.23-.58,3.74-2.55,4.96-.1.07-.24.07-.34,0h0c-1.97-1.22-2.41-2.73-2.55-4.96-.03-.23.1-.45.32-.54.78-.22,1.59-.34,2.4-.35.81,0,1.62.12,2.4.35.22.08.35.3.32.54M12.46,5.34c-1.67-.48-3.44-.48-5.11,0h0c-.49.15-.8.63-.75,1.14.15,2.4.68,4.09,2.83,5.42.29.19.67.19.96,0,2.15-1.33,2.67-3.01,2.83-5.42.05-.51-.26-.99-.75-1.14"/>
    <path class="cls-2" d="M21.12,11.88c-.39.97-1.33,1.59-2.37,1.58H2.52c-.48.01-.93-.23-1.19-.63-1.73-2.61-.31-6.36,2.95-6.96.13-.02.23-.13.24-.27.13-1.77,1.12-3.36,2.64-4.26,1.53-.9,3.4-.99,5.01-.25,1.61.74,2.75,2.23,3.06,3.97.01.08.06.16.13.2.07.04.16.06.24.03,1.16-.26,2.38-.08,3.42.5,1.04.58,1.83,1.52,2.22,2.64.39,1.12.35,2.35-.11,3.45M21.82,8.33c-.4-1.24-1.24-2.29-2.35-2.96-1.11-.67-2.43-.92-3.72-.7-.42-1.86-1.7-3.4-3.44-4.16-1.74-.76-3.75-.65-5.39.31s-2.74,2.63-2.95,4.53C.42,6.14-1.08,10.26.84,13.15c.37.57,1,.91,1.68.9h0s3.71,0,3.71,0l-1.66,1.81c-.06.05-.09.13-.09.21v1.86c-1.05.15-1.81,1.1-1.73,2.16.08,1.06.96,1.88,2.02,1.88s1.95-.82,2.03-1.88c.08-1.06-.68-2-1.73-2.16v-1.75l1.96-2.14h3.73v3.88c-.79.11-1.43.68-1.65,1.44-.22.76.02,1.59.62,2.1.6.52,1.45.64,2.17.31.72-.33,1.19-1.05,1.18-1.85,0-1.01-.74-1.86-1.74-2.01v-3.88h3.73l1.96,2.14v1.75c-1.05.15-1.81,1.1-1.73,2.16.08,1.06.96,1.88,2.02,1.88s1.95-.82,2.02-1.88c.08-1.06-.68-2-1.73-2.16v-1.86c0-.07-.03-.14-.08-.2h0s-1.67-1.82-1.67-1.82h2.89c1.28.01,2.43-.76,2.92-1.94.5-1.2.56-2.54.15-3.78"/>
    <path class="cls-3" d="M15.88,19.93c0,.58.35,1.11.89,1.33.54.22,1.16.1,1.57-.31.41-.41.53-1.03.31-1.57-.22-.54-.75-.89-1.33-.89-.38,0-.75.15-1.02.42-.27.27-.42.64-.42,1.02h0Z"/>
    <path class="cls-3" d="M11.05,18.49h0c-.58,0-1.11.35-1.34.88-.22.54-.1,1.16.31,1.57.41.41,1.03.54,1.57.32.54-.22.89-.75.89-1.33,0-.8-.64-1.44-1.44-1.44h0Z"/>
    <path class="cls-3" d="M3.32,19.93c0,.58.35,1.11.89,1.33.54.22,1.16.1,1.57-.31.41-.41.54-1.03.31-1.57-.22-.54-.75-.89-1.33-.89-.38,0-.75.15-1.02.42-.27.27-.42.64-.42,1.02Z"/>
  </g>
</svg>