<?xml version="1.0" encoding="UTF-8"?>
<svg id="Layer_1" xmlns="http://www.w3.org/2000/svg" xmlns:xlink="http://www.w3.org/1999/xlink" viewBox="0 0 22.99 16.7">
  <defs>
    <style>
      .cls-1, .cls-2 {
        fill: none;
      }

      .cls-3 {
        fill: #231f20;
      }

      .cls-2 {
        stroke: #231f20;
        stroke-miterlimit: 10;
        stroke-width: .62px;
      }

      .cls-4 {
        fill: #fff;
      }

      .cls-5 {
        clip-path: url(#clippath);
      }
    </style>
    <clipPath id="clippath">
      <rect class="cls-1" x="0" y="0" width="22.99" height="16.7"/>
    </clipPath>
  </defs>
  <g class="cls-5">
    <path class="cls-4" d="M3.81,9.6s-.37.51-.74-1.41c-.37-1.93-.51-2.34-.21-3.22.31-.88.68-2.19,1.03-2.5.35-.31.92-.78,1.27-1.03.35-.24,1.05-.66,1.39-.74.35-.08.45-.1.51-.14.06-.04.61-.25,1.02-.25h.45c.08,0,.51-.12.99.16.47.29,1.4.8,1.68,1.05.28.25.39.45.74.76.35.31.76.7.76.7,0,0,2.09-2.51,3.96-2.69,1.87-.18,4.1,1.44,4.18,1.56.08.12.94,1.02,1.17,1.58.23.55.64,1.46.64,1.93s-.23,1.87-.25,2.01c-.02.14-.96,2.67-1.15,2.79-.18.12-1.5,1.15-1.74,1.35-.25.2-5.21,3.79-5.21,3.79l-1.33.9-1.48-.72-1.26-.82,1.37-.27,6.58-4.1s-1.11-1.13-2.05-.78c-.94.35-2.17,1.09-2.17,1.09h-.57s.12-.62-2.07-.43l-1.49-.1-1.66-.66s-1.5-.1-1.62-.1-.12.02-.18.02-1.6.33-1.6.33l-.64.08-.31-.14Z"/>
    <path class="cls-3" d="M8.7,11.82c1.1-.09,2.32-.14,3.43-.18.25-.03.79.04.98-.15.48-.37.16-1.24-.49-1.1l-2.29.03h-.04c-1.28-.3-2.47-1.03-3.79-.88-2.14.43-4.33.93-6.51,1.27,2.15-.66,4.24-1.32,6.44-1.81,1.24-.21,3.09.57,3.9.82.51.06,2.55-.11,2.97.17.98.53.5,2.17-.6,2.04-1.3-.04-2.7-.1-4-.2"/>
    <path class="cls-2" d="M9.88,14.46c1.57,1.07,2.83,1.87,2.83,1.87,0,0,6.72-4.07,8.31-6.1.99-1.26,1.67-2.51,1.67-4.12,0-3.2-2.53-5.81-5.64-5.81-1.74,0-3.3,1.47-4.34,2.75-1.03-1.28-2.59-2.75-4.34-2.75C5.26.31,2.73,2.91,2.73,6.12c0,1.41.36,2.5,1.25,3.63M13.58,10.75l2.57-1.09c.76-.32,1.63.01,2,.76l-6.44,3.88c-.47.28-1.02.37-1.55.23l-3.94-1.01c-.29-.08-.6-.08-.9-.01l-2.48.56"/>
  </g>
</svg>